<?xml version="1.0" encoding="utf-8"?>
<!DOCTYPE svg PUBLIC "-//W3C//DTD SVG 1.1//EN"
  "http://www.w3.org/Graphics/SVG/1.1/DTD/svg11.dtd">
<svg version="1.1"
  xmlns="http://www.w3.org/2000/svg"
  xmlns:xlink="http://www.w3.org/1999/xlink"
  width="47px"
  height="47px"
  viewBox="0 0 47 47"
  xml:space="preserve"
>
  <symbol id="新規シンボル_1" viewBox="-71.642 -80 143.284 160.001">
    <path fill="#006FB3" d="M-0.001-48.001c-8.744,0-16.934,2.35-23.994,6.435c-12.979,7.51-22.094,20.923-23.717,36.565h-22.652
      c-0.037-1.975-0.097-3.826-0.18-5.4l-1.082-20.861c-0.299-5.723,3.635-12.533,8.738-15.137l18.605-9.49
      c2.553-1.302,5.857-3.124,9.123-5.011c3.266-1.885,6.492-3.834,8.895-5.394l17.523-11.367c4.807-3.119,12.672-3.119,17.479,0
      l17.523,11.367c1.324,0.858,2.898,1.836,4.591,2.855L19.53-43.829C13.562-46.498,6.961-48.001-0.001-48.001z"/>
    <path fill="#00B2DD" d="M70.542-10.403C70.394-7.542,70.317-3.771,70.317,0c0,3.771,0.076,7.542,0.225,10.403l1.084,20.859
      c0.297,5.723-3.635,12.531-8.738,15.135L44.28,55.89c-1.404,0.717-3.037,1.591-4.767,2.547L28.185,38.813
      C40.181,30.089,47.999,15.969,47.999,0c0-0.001,0-0.001,0-0.001c0-15.97-7.818-30.092-19.816-38.814l11.329-19.622
      c1.729,0.956,3.362,1.831,4.767,2.548l18.609,9.49c5.104,2.604,9.035,9.414,8.738,15.137L70.542-10.403z"/>
    <path fill="#00498F" d="M-23.997,41.563c7.061,4.086,15.252,6.436,23.996,6.436c6.962,0,13.563-1.503,19.533-4.172l11.321,19.609
      c-1.693,1.02-3.268,1.996-4.591,2.855L8.737,77.661c-4.807,3.119-12.67,3.119-17.477,0l-17.523-11.369
      c-2.402-1.559-5.631-3.508-8.896-5.394s-6.568-3.707-9.121-5.009l-18.607-9.49c-5.104-2.604-9.037-9.414-8.738-15.137l1.082-20.859
      c0.083-1.575,0.143-3.428,0.18-5.404h22.652C-46.089,20.643-36.977,34.055-23.997,41.563z"/>
  </symbol>

  <g>
    <!-- 互換性のため xlink:href と href 両方書いてOK -->
    <use xlink:href="#新規シンボル_1" href="#新規シンボル_1"
      width="143.284" height="160.001" x="-71.642" y="-80"
      transform="matrix(0.2738 0.0734 0.0734 -0.2738 22.0869 22.0859)"
      overflow="visible"
    />
  </g>
</svg>
