<svg width="118" height="120" viewBox="0 0 118 120" fill="none" xmlns="http://www.w3.org/2000/svg">
<path d="M38.9074 13.3796C39.203 13.257 39.4902 13.2534 39.769 13.3687C40.0535 13.4701 40.2571 13.6686 40.3797 13.9642C40.4982 14.25 40.4948 14.5343 40.3696 14.8171C40.2502 15.0861 40.0427 15.2818 39.7471 15.4044C39.4515 15.527 39.1614 15.5376 38.8769 15.4362C38.5981 15.3208 38.3994 15.1203 38.281 14.8345C38.1584 14.5389 38.1568 14.2567 38.2762 13.9877C38.4014 13.7049 38.6118 13.5022 38.9074 13.3796Z" fill="#2B2B2B" fill-opacity="0.5"/>
<path d="M29.2601 8.23393L30.5451 10.5584L32.4775 9.49012L32.6323 9.77017L30.7 10.8384L33.7422 16.3415C33.9538 16.7242 34.1734 16.9563 34.4012 17.0375C34.629 17.1188 34.8735 17.0872 35.1349 16.9427C35.3776 16.8086 35.5382 16.5918 35.6165 16.2926C35.7041 15.9882 35.689 15.5639 35.571 15.0197L35.8912 14.9707C36.0527 15.5273 36.0842 16.0584 35.9858 16.5638C35.8915 17.0546 35.569 17.4523 35.0182 17.7568C34.7008 17.9323 34.4115 18.0373 34.1504 18.072C33.8944 18.116 33.6458 18.1072 33.4045 18.0456C33.0804 17.9444 32.7985 17.7651 32.5587 17.5077C32.3188 17.2502 32.0622 16.8741 31.7886 16.3794L29.1877 11.6745L27.8994 12.3866L27.7446 12.1066L29.0328 11.3944L27.9026 9.35001C28.1869 9.1807 28.4447 9.0077 28.6761 8.83102C28.9023 8.64501 29.097 8.44597 29.2601 8.23393Z" fill="#2B2B2B" fill-opacity="0.5"/>
<path d="M22.5569 15.8343C22.8883 15.5655 23.1944 15.3926 23.4754 15.3157C23.758 15.2238 24.0302 15.1953 24.292 15.2301C24.5687 15.2665 24.8369 15.3855 25.0965 15.5869C25.3644 15.7816 25.6698 16.0902 26.0125 16.5126L28.7143 19.8424C28.9966 20.1903 29.2544 20.3726 29.4877 20.3893C29.7293 20.3993 30.0117 20.2732 30.3347 20.0111L30.5464 20.272C30.3989 20.378 30.1727 20.5478 29.8677 20.7815C29.5561 21.0069 29.2553 21.2372 28.9654 21.4724C28.6838 21.7009 28.4089 21.9377 28.1407 22.1828C27.8741 22.4129 27.6738 22.5892 27.5397 22.7117L27.328 22.4508C27.6096 22.2223 27.758 21.9989 27.7731 21.7805C27.7883 21.5622 27.6547 21.2791 27.3724 20.9312L24.3884 17.2535C24.1935 17.0133 23.998 16.8148 23.8021 16.6579C23.5993 16.4927 23.3847 16.4059 23.158 16.3974C22.9247 16.3807 22.6755 16.4799 22.4105 16.695C22.104 16.9436 21.9012 17.2524 21.8021 17.6212C21.7114 17.9834 21.7199 18.3748 21.8277 18.7955C21.9372 19.2012 22.1431 19.5905 22.4455 19.9632L24.8751 22.9575C25.1574 23.3054 25.4069 23.4944 25.6237 23.5246C25.8487 23.548 26.0979 23.4488 26.3713 23.227L26.583 23.488C26.4437 23.5872 26.2341 23.7436 25.954 23.9571C25.6755 24.1556 25.3913 24.3725 25.1014 24.6077C24.8198 24.8362 24.5325 25.0831 24.2394 25.3483C23.9397 25.6053 23.7186 25.7984 23.5762 25.9276L23.3645 25.6667C23.6876 25.4046 23.865 25.1576 23.8967 24.9259C23.9367 24.6874 23.8155 24.3942 23.5333 24.0463L20.3678 20.145C20.0653 19.7722 19.7814 19.5493 19.516 19.4762C19.2439 19.3948 18.9339 19.4952 18.586 19.7775L18.3743 19.5166C18.6596 19.3263 18.9264 19.1304 19.1749 18.9288C19.4565 18.7003 19.7074 18.4762 19.9274 18.2564C20.149 18.0216 20.3398 17.7913 20.4999 17.5653L21.5987 18.9195C21.3974 18.2313 21.3991 17.6324 21.6038 17.1228C21.8168 16.6066 22.1345 16.1771 22.5569 15.8343Z" fill="#2B2B2B" fill-opacity="0.5"/>
<path d="M13.5708 24.6068C14.1671 23.8819 14.8529 23.4931 15.6283 23.4403C16.4037 23.3875 17.2651 23.7508 18.2125 24.53L14.7059 28.7931L14.4508 28.6247L16.9003 25.6467C16.5034 25.3065 16.1056 25.0345 15.7069 24.8308C15.2999 24.6204 14.9291 24.5087 14.5944 24.4958C14.2597 24.4829 13.9873 24.6042 13.7773 24.8596C13.4859 25.2138 13.4212 25.6785 13.5834 26.2539C13.744 26.8142 14.2125 27.4619 14.9889 28.1972L15.0811 28.211C15.1897 28.3141 15.3106 28.4273 15.4439 28.5508C15.5689 28.6674 15.6973 28.78 15.8291 28.8884C16.3975 29.3559 16.9465 29.6624 17.476 29.8079C18.0054 29.9534 18.4842 29.9674 18.9123 29.85C19.3322 29.7257 19.6607 29.5194 19.8978 29.2311C20.0808 29.0087 20.224 28.7674 20.3275 28.5072C20.4296 28.2321 20.4761 27.932 20.4672 27.607C20.4501 27.2752 20.3542 26.9132 20.1796 26.521L20.4817 26.3552C20.6805 26.6844 20.8311 27.0638 20.9336 27.4934C21.036 27.9229 21.0416 28.3695 20.9503 28.8331C20.8508 29.2899 20.6249 29.7325 20.2725 30.1608C19.7982 30.7375 19.2572 31.135 18.6495 31.3533C18.0335 31.5648 17.3876 31.586 16.7119 31.4169C16.0361 31.2478 15.3646 30.8888 14.6973 30.3399C13.9641 29.7368 13.4363 29.1024 13.1138 28.4366C12.7914 27.7708 12.6704 27.1119 12.7509 26.46C12.8299 25.793 13.1032 25.1753 13.5708 24.6068Z" fill="#2B2B2B" fill-opacity="0.5"/>
<path d="M5.56672 38.5188C5.73839 38.1516 5.9361 37.8672 6.15985 37.6657C6.37394 37.4596 6.60409 37.32 6.8503 37.2467C7.11521 37.1586 7.41808 37.153 7.75891 37.2299C8.09008 37.3023 8.48757 37.447 8.95138 37.6638L12.8358 39.4799C13.2416 39.6697 13.5532 39.7211 13.7704 39.6343C13.9876 39.5474 14.1821 39.3204 14.3537 38.9532L14.6581 39.0956C14.5716 39.2553 14.4423 39.5068 14.27 39.8502C14.0925 40.1793 13.927 40.5082 13.7734 40.8367C13.6198 41.1653 13.4781 41.4935 13.3484 41.8214C13.2135 42.1351 13.1124 42.3764 13.0453 42.5451L12.7409 42.4028C12.89 42.084 12.9214 41.8278 12.8352 41.6345C12.7535 41.4314 12.5098 41.235 12.1039 41.0453L7.81369 39.0394C7.53347 38.9084 7.2732 38.8103 7.03289 38.745C6.78291 38.6753 6.5564 38.6812 6.35336 38.7629C6.14517 38.8304 5.97105 39.014 5.831 39.3135C5.67288 39.6517 5.63204 40.0035 5.70846 40.3689C5.7894 40.7247 5.97023 41.0683 6.25095 41.3997C6.52653 41.717 6.88173 41.9772 7.31655 42.1805L10.8096 43.8137C11.2155 44.0034 11.5225 44.0645 11.7307 43.997C11.9388 43.9295 12.1152 43.7411 12.2598 43.4319L12.5642 43.5742C12.4822 43.7243 12.3641 43.9517 12.2099 44.2564C12.046 44.5566 11.8873 44.8709 11.7337 45.1995C11.5801 45.528 11.4294 45.8755 11.2815 46.2421C11.124 46.6041 11.0095 46.8744 10.9378 47.0528L10.6334 46.9105C10.8096 46.5337 10.8614 46.2341 10.7887 46.0117C10.7206 45.7797 10.4836 45.5688 10.0778 45.379L5.52662 43.2512C5.09179 43.0479 4.73904 42.9713 4.46836 43.0214C4.18801 43.0669 3.95297 43.2926 3.76323 43.6984L3.45885 43.5561C3.6324 43.2605 3.78695 42.9677 3.92248 42.6778C4.07608 42.3493 4.20389 42.0381 4.30591 41.7444C4.40279 41.4364 4.47388 41.1458 4.51919 40.8727L6.09904 41.6113C5.63674 41.089 5.3771 40.5614 5.32013 40.0284C5.26768 39.4858 5.34987 38.9826 5.56672 38.5188ZM7.60645 34.1561C7.77812 33.7889 7.97583 33.5045 8.19958 33.303C8.41367 33.0969 8.64382 32.9572 8.89003 32.884C9.15494 32.7959 9.45781 32.7903 9.79864 32.8672C10.1298 32.9396 10.5273 33.0842 10.9911 33.3011L14.8755 35.1172C15.2814 35.3069 15.5929 35.3584 15.8101 35.2716C16.0319 35.1751 16.2308 34.9384 16.407 34.5615L16.7114 34.7038C16.6249 34.8636 16.4955 35.1151 16.3232 35.4585C16.1413 35.7973 15.9712 36.1358 15.8131 36.474C15.6595 36.8025 15.5178 37.1308 15.3881 37.4587C15.2532 37.7724 15.1522 38.0136 15.085 38.1824L14.7807 38.0401C14.9297 37.7212 14.9612 37.4651 14.875 37.2717C14.7933 37.0687 14.5495 36.8723 14.1437 36.6826L9.85342 34.6767C9.5732 34.5457 9.31293 34.4476 9.07262 34.3823C8.82264 34.3125 8.59613 34.3185 8.39309 34.4002C8.18038 34.4774 8.00174 34.6706 7.85718 34.9798C7.69906 35.318 7.66304 35.672 7.74913 36.042C7.83007 36.3977 8.0109 36.7413 8.29162 37.0728C8.5672 37.39 8.9224 37.6503 9.35722 37.8536L8.1271 37.3491C7.61134 36.79 7.33915 36.2389 7.31054 35.6956C7.28645 35.1427 7.38509 34.6295 7.60645 34.1561Z" fill="#2B2B2B" fill-opacity="0.5"/>
<path d="M1.39014 51.5168C1.51863 50.8138 1.77963 50.2163 2.17315 49.7244C2.56667 49.2324 3.10794 48.8813 3.79696 48.6711C4.48598 48.4609 5.33939 48.4488 6.3572 48.6348C7.37501 48.8208 8.16897 49.134 8.7391 49.5743C9.29873 50.0128 9.67559 50.5316 9.86967 51.131C10.0533 51.7284 10.0808 52.3786 9.95233 53.0816C9.82576 53.7741 9.57001 54.3726 9.18507 54.8769C8.78963 55.3793 8.25265 55.7366 7.57412 55.9488C6.88702 56.1485 6.03456 56.1553 5.01675 55.9693C3.99895 55.7833 3.20402 55.4754 2.63198 55.0455C2.06185 54.6052 1.68071 54.0801 1.48854 53.4703C1.29638 52.8605 1.26358 52.2093 1.39014 51.5168ZM1.70493 51.5743C1.60521 52.1199 1.8385 52.6234 2.40479 53.0848C2.96058 53.5442 3.94151 53.9023 5.34755 54.1593C6.7536 54.4163 7.7978 54.4282 8.48016 54.1951C9.15203 53.96 9.53782 53.5697 9.63754 53.0241C9.73534 52.4889 9.51159 51.9926 8.96629 51.5351C8.41241 51.0652 7.43245 50.7018 6.0264 50.4448C4.62036 50.1879 3.57519 50.1812 2.89092 50.4248C2.19806 50.656 1.80273 51.0392 1.70493 51.5743Z" fill="#2B2B2B" fill-opacity="0.5"/>
<path d="M1.2132 67.6451C1.18232 67.2409 1.21482 66.8961 1.31068 66.6107C1.39591 66.326 1.52774 66.0913 1.70618 65.9065C1.89363 65.6996 2.15468 65.5459 2.48934 65.4455C2.81335 65.3458 3.23062 65.2765 3.74113 65.2375L8.01667 64.9108C8.46337 64.8767 8.75998 64.7685 8.90651 64.5861C9.05305 64.4037 9.11087 64.1105 9.07999 63.7063L9.41502 63.6807C9.4182 63.8623 9.4291 64.145 9.44771 64.5287C9.45489 64.9026 9.47229 65.2703 9.49991 65.6319C9.52754 65.9935 9.5654 66.349 9.61349 66.6984C9.65013 67.0379 9.68068 67.2977 9.70513 67.4777L9.3701 67.5033C9.34329 67.1523 9.24483 66.9137 9.07473 66.7877C8.90382 66.651 8.59501 66.5997 8.14831 66.6338L3.42608 66.9946C3.11764 67.0182 2.84274 67.0606 2.60137 67.1218C2.34937 67.1839 2.15501 67.3003 2.0183 67.4713C1.87014 67.6323 1.80866 67.8777 1.83385 68.2074C1.86229 68.5797 1.99956 68.9062 2.24567 69.1869C2.49096 69.457 2.81727 69.6674 3.2246 69.8182C3.62049 69.9591 4.05774 70.0113 4.53634 69.9747L8.38113 69.6809C8.82783 69.6468 9.12526 69.5492 9.27342 69.3881C9.42158 69.227 9.48265 68.9763 9.45665 68.636L9.79167 68.6104C9.79404 68.7813 9.80291 69.0374 9.81828 69.3786C9.82301 69.7205 9.83919 70.0723 9.86682 70.4339C9.89445 70.7955 9.93393 71.1723 9.98527 71.5642C10.026 71.9569 10.059 72.2486 10.0842 72.4392L9.7492 72.4648C9.7175 72.05 9.61539 71.7636 9.44285 71.6056C9.2695 71.437 8.95948 71.3698 8.51278 71.4039L3.50338 71.7867C3.02478 71.8232 2.67989 71.9298 2.46873 72.1064C2.24694 72.2838 2.15311 72.5959 2.18724 73.0426L1.85221 73.0682C1.85812 72.7254 1.84888 72.3945 1.8245 72.0754C1.79687 71.7138 1.75532 71.38 1.69985 71.074C1.63292 70.7582 1.55208 70.4702 1.45732 70.2099L3.19625 70.0771C2.53698 69.8493 2.05161 69.5173 1.74014 69.0811C1.42785 68.6343 1.25221 68.1556 1.2132 67.6451ZM0.846299 62.8431C0.815419 62.4389 0.847911 62.0941 0.943775 61.8087C1.029 61.524 1.16084 61.2893 1.33928 61.1045C1.52673 60.8976 1.78778 60.7439 2.12243 60.6435C2.44645 60.5438 2.86371 60.4745 3.37423 60.4355L7.64976 60.1088C8.09646 60.0747 8.39308 59.9664 8.53961 59.7841C8.68533 59.5911 8.74234 59.2872 8.71065 58.8724L9.04568 58.8468C9.04885 59.0284 9.05975 59.3111 9.07837 59.6948C9.08636 60.0793 9.10457 60.4577 9.13301 60.8299C9.16064 61.1915 9.1985 61.547 9.24659 61.8964C9.28323 62.2359 9.31377 62.4957 9.33822 62.6756L9.0032 62.7012C8.97638 62.3503 8.87792 62.1117 8.70783 61.9857C8.53691 61.849 8.22811 61.7977 7.78141 61.8318L3.05917 62.1926C2.75074 62.2162 2.47584 62.2586 2.23447 62.3198C1.98246 62.3819 1.78811 62.4983 1.6514 62.6692C1.50405 62.841 1.44338 63.097 1.46938 63.4373C1.49783 63.8096 1.64042 64.1357 1.89715 64.4156C2.14244 64.6857 2.46876 64.8961 2.87609 65.0469C3.27198 65.1878 3.70922 65.2399 4.18783 65.2034L2.86856 65.3684C2.14467 65.1348 1.63681 64.7885 1.34498 64.3294C1.05235 63.8597 0.886118 63.3642 0.846299 62.8431Z" fill="#2B2B2B" fill-opacity="0.5"/>
<path d="M14.3745 83.7109C14.5605 84.1184 14.6423 84.5032 14.6199 84.8652C14.5975 85.2272 14.4836 85.5429 14.2784 85.8125C14.0731 86.082 13.7958 86.2965 13.4464 86.456C13.0194 86.6508 12.6307 86.711 12.2801 86.6365C11.9198 86.5664 11.5886 86.4186 11.2863 86.193C10.9796 85.9578 10.6954 85.6947 10.4337 85.4038C10.1578 85.1076 9.9027 84.8312 9.66838 84.5747C9.41993 84.3129 9.18349 84.1159 8.95906 83.9839C8.73021 83.8421 8.50418 83.8221 8.28099 83.924L7.29119 84.3757C6.94185 84.5351 6.69186 84.7195 6.54122 84.929C6.37645 85.1332 6.29468 85.3522 6.29591 85.5861C6.29272 85.8104 6.35091 86.0535 6.47048 86.3155C6.57233 86.5387 6.71479 86.7609 6.89786 86.9822C7.07123 87.208 7.28331 87.3515 7.53411 87.413C7.49491 87.1729 7.53164 86.9451 7.64432 86.7295C7.74285 86.5087 7.91828 86.3407 8.17058 86.2255C8.44229 86.1015 8.69785 86.0963 8.93725 86.2098C9.17223 86.3136 9.35171 86.5014 9.47571 86.7731C9.61299 87.0739 9.62266 87.3392 9.50471 87.5689C9.37706 87.803 9.18709 87.9777 8.93479 88.0928C8.67278 88.2124 8.43051 88.2467 8.20797 88.1959C7.981 88.1353 7.74603 88.0315 7.50304 87.8844C7.2415 87.7224 6.97542 87.4862 6.70483 87.1759C6.4298 86.8558 6.19043 86.4726 5.98672 86.0262C5.79629 85.609 5.68096 85.2278 5.64072 84.8827C5.58634 84.5323 5.61454 84.2087 5.72533 83.9119C5.8378 83.5675 6.04615 83.2789 6.35036 83.0463C6.64486 82.8181 7.02986 82.5955 7.50535 82.3785L11.5228 80.5451C11.7654 80.4344 11.9268 80.3256 12.0069 80.2186C12.073 80.1064 12.0728 79.9775 12.0064 79.832C11.9621 79.7349 11.8957 79.6538 11.8074 79.5886C11.7146 79.5137 11.5908 79.4353 11.4362 79.3535L11.6173 79.095C11.8752 79.2235 12.1014 79.3723 12.2959 79.5415C12.4859 79.701 12.654 79.9409 12.8002 80.2611C12.9419 80.5717 13.0085 80.8461 13 81.0845C12.9916 81.3228 12.9173 81.5326 12.7772 81.7138C12.6327 81.8853 12.4246 82.033 12.1529 82.157C12.6756 82.2233 13.1234 82.3824 13.4963 82.6343C13.8692 82.8862 14.1619 83.2451 14.3745 83.7109ZM13.357 83.331C13.233 83.0593 13.0402 82.8425 12.7787 82.6804C12.5127 82.5087 12.1779 82.3918 11.7744 82.3297L8.87779 83.6516C9.08176 83.6875 9.28847 83.7808 9.49792 83.9314C9.69766 84.0865 9.9089 84.2539 10.1316 84.4336C10.3544 84.6134 10.5921 84.7746 10.8448 84.9172C11.0833 85.0546 11.35 85.138 11.6449 85.1676C11.9398 85.1972 12.2668 85.13 12.6258 84.9662C13.0043 84.7935 13.2608 84.5591 13.3955 84.2632C13.5204 83.9717 13.5075 83.661 13.357 83.331Z" fill="#2B2B2B" fill-opacity="0.5"/>
<path d="M12.0007 100.163L14.0496 98.4725L12.6446 96.7692L12.8915 96.5656L14.2965 98.2689L19.1471 94.2676C19.4845 93.9894 19.6722 93.7308 19.7103 93.492C19.7484 93.2532 19.6724 93.0186 19.4823 92.7882C19.3058 92.5742 19.0633 92.4563 18.7548 92.4342C18.4395 92.404 18.0252 92.4968 17.5119 92.7128L17.4049 92.407C17.9224 92.146 18.4387 92.0175 18.9535 92.0214C19.4534 92.0239 19.9035 92.2679 20.304 92.7534C20.5348 93.0331 20.6912 93.2982 20.7732 93.5485C20.8635 93.7921 20.9005 94.0381 20.8843 94.2866C20.8443 94.6237 20.7199 94.9338 20.5109 95.2168C20.3019 95.4999 19.9793 95.8213 19.5432 96.181L15.3961 99.6019L16.3327 100.737L16.0859 100.941L15.1492 99.8055L13.3472 101.292C13.1285 101.044 12.9111 100.822 12.695 100.627C12.4705 100.439 12.2391 100.284 12.0007 100.163Z" fill="#2B2B2B" fill-opacity="0.5"/>
<path d="M16.7942 107.242C16.5525 107.017 16.4227 106.749 16.4046 106.441C16.3792 106.14 16.4721 105.876 16.6833 105.65C16.8944 105.424 17.1547 105.309 17.464 105.306C17.766 105.311 18.0379 105.426 18.2795 105.652C18.5212 105.878 18.6547 106.141 18.68 106.442C18.6981 106.751 18.6016 107.018 18.3904 107.244C18.1793 107.471 17.9227 107.581 17.6206 107.576C17.3113 107.579 17.0358 107.468 16.7942 107.242ZM18.7247 103.769L23.4646 98.6944C23.7704 98.367 23.9156 98.0866 23.9001 97.8531C23.8768 97.6124 23.7131 97.3501 23.4091 97.0661L23.6384 96.8206C23.7637 96.9522 23.963 97.1529 24.2363 97.4228C24.4946 97.6932 24.7679 97.9632 25.0563 98.2326C25.3292 98.4874 25.6171 98.7417 25.9201 98.9955C26.2158 99.2571 26.4374 99.4495 26.585 99.5728L26.3557 99.8184C26.0517 99.5344 25.7827 99.3926 25.5487 99.3931C25.307 99.3862 25.0332 99.5465 24.7274 99.8739L21.2981 103.545C20.9705 103.896 20.7886 104.208 20.7527 104.481C20.7094 104.762 20.8515 105.055 21.1789 105.361L20.9495 105.606C20.7219 105.35 20.4912 105.113 20.2573 104.894C19.9923 104.647 19.7358 104.429 19.4879 104.241C19.225 104.054 18.9705 103.896 18.7247 103.769Z" fill="#2B2B2B" fill-opacity="0.5"/>
<path d="M32.4612 103.525C32.8313 103.778 33.1004 104.065 33.2686 104.386C33.4368 104.707 33.5028 105.036 33.4667 105.373C33.4306 105.71 33.3043 106.037 33.0879 106.354C32.8234 106.742 32.5219 106.995 32.1834 107.112C31.8389 107.239 31.4789 107.284 31.1036 107.247C30.7194 107.205 30.3401 107.127 29.9655 107.013C29.5762 106.903 29.2149 106.798 28.8816 106.7C28.5335 106.605 28.2293 106.559 27.9689 106.562C27.6997 106.559 27.4959 106.659 27.3577 106.861L26.7446 107.76C26.5282 108.077 26.4098 108.365 26.3893 108.622C26.354 108.882 26.3974 109.112 26.5195 109.311C26.6329 109.505 26.8085 109.683 27.0464 109.845C27.2491 109.983 27.486 110.1 27.7572 110.194C28.0223 110.298 28.2781 110.311 28.5245 110.233C28.3667 110.048 28.2802 109.834 28.2651 109.592C28.2351 109.352 28.2982 109.117 28.4545 108.888C28.6228 108.641 28.8387 108.504 29.1023 108.478C29.3571 108.445 29.6079 108.513 29.8546 108.681C30.1278 108.867 30.2733 109.089 30.2913 109.347C30.3033 109.613 30.2311 109.861 30.0748 110.09C29.9125 110.328 29.723 110.483 29.5063 110.554C29.2807 110.62 29.026 110.653 28.7419 110.653C28.4343 110.65 28.0844 110.585 27.6922 110.46C27.2913 110.328 26.8881 110.124 26.4828 109.848C26.1038 109.589 25.8079 109.323 25.5948 109.048C25.3669 108.777 25.2236 108.485 25.1648 108.174C25.0827 107.821 25.1116 107.466 25.2515 107.11C25.3854 106.762 25.5996 106.372 25.8941 105.941L28.3826 102.292C28.5329 102.072 28.6146 101.896 28.6279 101.763C28.6263 101.632 28.5594 101.522 28.4272 101.432C28.3391 101.372 28.2404 101.337 28.131 101.327C28.0129 101.311 27.8664 101.308 27.6918 101.318L27.7129 101.003C28.0001 100.979 28.2707 100.99 28.5247 101.034C28.7698 101.072 29.0378 101.19 29.3286 101.388C29.6106 101.581 29.8096 101.781 29.9258 101.989C30.0419 102.198 30.0869 102.416 30.0608 102.643C30.0259 102.865 29.9243 103.099 29.756 103.346C30.2376 103.132 30.7031 103.036 31.1525 103.059C31.602 103.081 32.0382 103.237 32.4612 103.525ZM31.394 103.727C31.1472 103.559 30.87 103.473 30.5624 103.47C30.2459 103.46 29.899 103.533 29.5216 103.689L27.7274 106.32C27.9205 106.245 28.1456 106.217 28.4028 106.238C28.6539 106.267 28.9213 106.301 29.2049 106.34C29.4886 106.378 29.7754 106.393 30.0654 106.384C30.3406 106.378 30.612 106.312 30.8797 106.184C31.1473 106.057 31.3923 105.83 31.6147 105.504C31.8491 105.161 31.9473 104.827 31.9094 104.505C31.8654 104.19 31.6936 103.931 31.394 103.727Z" fill="#2B2B2B" fill-opacity="0.5"/>
<path d="M40.7692 116.365L40.8905 116.052C41.1292 116.144 41.3508 116.207 41.5552 116.24C41.7458 116.28 41.8999 116.237 42.0173 116.11C42.1248 115.98 42.187 115.701 42.204 115.273L42.4176 110.244L42.575 110.236L38.2152 115.428L37.9688 115.179L43.5182 108.508C43.5978 108.539 43.6774 108.569 43.7569 108.6C43.8365 108.631 43.9211 108.664 44.0106 108.698L43.8699 116.244C43.8751 116.704 43.9419 117.004 44.0703 117.145C44.1887 117.282 44.3026 117.372 44.412 117.415L44.2908 117.728C44.0636 117.606 43.8295 117.487 43.5885 117.37C43.3337 117.26 43.0521 117.146 42.7437 117.026C42.4353 116.907 42.1082 116.792 41.7622 116.681C41.4064 116.566 41.0754 116.461 40.7692 116.365ZM32.7115 113.247L32.827 112.949C33.0276 112.992 33.2432 112.967 33.4739 112.873C33.7046 112.779 33.9635 112.554 34.2507 112.196L38.8029 106.683C38.8825 106.714 38.9671 106.747 39.0566 106.781C39.1362 106.812 39.2158 106.843 39.2954 106.874L39.2927 113.752L38.2152 115.428C38.1196 115.38 38.027 115.338 37.9375 115.304C37.8342 115.275 37.7328 115.242 37.6333 115.203L37.7625 108.219L37.9025 108.256L35.0188 111.807C34.7317 112.165 34.5568 112.469 34.4943 112.719C34.4317 112.969 34.4669 113.189 34.5998 113.377C34.7326 113.566 34.9724 113.745 35.3189 113.913L35.2034 114.211C35.0282 114.132 34.8729 114.061 34.7375 113.997C34.5883 113.939 34.446 113.878 34.3105 113.814C34.1613 113.757 34.0121 113.699 33.8629 113.641C33.644 113.556 33.4382 113.483 33.2453 113.419C33.0425 113.352 32.8646 113.295 32.7115 113.247Z" fill="#2B2B2B" fill-opacity="0.5"/>
<path d="M56.4763 119.568C55.5386 119.526 54.8156 119.212 54.3076 118.624C53.7995 118.036 53.5723 117.129 53.626 115.903L59.1407 116.145L59.1594 116.45L55.3071 116.281C55.2735 116.803 55.2951 117.284 55.3719 117.725C55.4482 118.177 55.5817 118.541 55.7725 118.816C55.9633 119.091 56.2239 119.236 56.5543 119.251C57.0125 119.271 57.4228 119.043 57.7853 118.568C58.1367 118.103 58.373 117.339 58.4943 116.277L58.4499 116.195C58.4671 116.046 58.485 115.881 58.5035 115.701C58.5217 115.531 58.5345 115.36 58.542 115.19C58.5742 114.454 58.4894 113.831 58.2875 113.321C58.0857 112.81 57.8092 112.419 57.4581 112.147C57.1065 111.886 56.7442 111.748 56.3713 111.731C56.0835 111.719 55.8046 111.749 55.5345 111.823C55.2532 111.907 54.9853 112.05 54.7309 112.252C54.476 112.465 54.2442 112.759 54.0356 113.135L53.7215 112.993C53.8653 112.636 54.0781 112.288 54.3599 111.948C54.6417 111.608 54.9953 111.335 55.4207 111.129C55.8457 110.934 56.3352 110.849 56.8893 110.873C57.6353 110.906 58.2781 111.1 58.8177 111.454C59.3569 111.82 59.7619 112.323 60.0328 112.965C60.3036 113.607 60.4201 114.359 60.3823 115.222C60.3407 116.171 60.1507 116.974 59.8123 117.632C59.4738 118.29 59.0198 118.782 58.4503 119.109C57.8696 119.447 57.2116 119.6 56.4763 119.568Z" fill="#2B2B2B" fill-opacity="0.5"/>
<path d="M67.411 119.023C66.988 119.08 66.6141 119.059 66.2892 118.963C65.9551 118.878 65.7123 118.792 65.5608 118.704C65.1754 118.476 64.9825 118.684 64.9822 119.33L64.6333 119.376C64.6151 119.077 64.5832 118.716 64.5376 118.291C64.4933 117.878 64.4256 117.327 64.3343 116.64L64.6832 116.594C64.7986 116.976 64.9602 117.342 65.168 117.691C65.3652 118.042 65.628 118.319 65.9564 118.523C66.2742 118.728 66.6657 118.8 67.1309 118.738C67.4799 118.691 67.7573 118.552 67.9632 118.321C68.1706 118.099 68.2489 117.798 68.1984 117.418C68.1562 117.101 68.0245 116.838 67.8033 116.631C67.5821 116.424 67.3101 116.239 66.9873 116.078C66.654 115.917 66.2974 115.744 65.9176 115.558C65.4912 115.346 65.1072 115.128 64.7654 114.904C64.4145 114.692 64.1281 114.44 63.9062 114.147C63.6737 113.855 63.5294 113.497 63.4732 113.074C63.4085 112.588 63.4859 112.158 63.7053 111.784C63.9141 111.412 64.2181 111.108 64.6171 110.872C65.0176 110.647 65.4716 110.501 65.9792 110.433C66.2329 110.399 66.4744 110.394 66.7034 110.418C66.9311 110.43 67.145 110.461 67.3452 110.51C67.4699 110.558 67.5947 110.606 67.7194 110.654C67.835 110.714 67.9498 110.769 68.064 110.818C68.1796 110.878 68.2733 110.855 68.3453 110.748C68.4172 110.642 68.4582 110.464 68.4682 110.215L68.8171 110.169C68.8409 110.51 68.8798 110.925 68.9339 111.413C68.9879 111.9 69.0683 112.546 69.1751 113.35L68.8262 113.396C68.6749 112.824 68.4957 112.326 68.2887 111.902C68.0817 111.477 67.8186 111.157 67.4993 110.941C67.171 110.738 66.753 110.669 66.2455 110.737C66.0446 110.763 65.8493 110.832 65.6596 110.944C65.4714 111.066 65.3271 111.235 65.2269 111.453C65.1162 111.672 65.0833 111.951 65.1282 112.289C65.19 112.755 65.4045 113.114 65.7716 113.366C66.1296 113.631 66.5848 113.898 67.1373 114.169C67.5305 114.375 67.9072 114.578 68.2673 114.778C68.6182 114.989 68.9145 115.235 69.1561 115.515C69.3992 115.806 69.5495 116.168 69.6071 116.601C69.6703 117.077 69.6113 117.483 69.4299 117.819C69.2381 118.157 68.9616 118.425 68.6006 118.623C68.2411 118.832 67.8445 118.966 67.411 119.023Z" fill="#2B2B2B" fill-opacity="0.5"/>
<path d="M75.968 108.004C76.3941 107.866 76.7857 107.828 77.1428 107.892C77.4998 107.955 77.8006 108.104 78.0451 108.339C78.2896 108.573 78.4712 108.873 78.5899 109.238C78.7349 109.685 78.7505 110.078 78.6367 110.418C78.5261 110.768 78.3416 111.08 78.0832 111.355C77.8146 111.633 77.521 111.885 77.2022 112.112C76.8765 112.352 76.573 112.575 76.2915 112.778C76.0031 112.995 75.7806 113.208 75.6238 113.416C75.457 113.627 75.4115 113.849 75.4873 114.083L75.8236 115.117C75.9423 115.483 76.0971 115.752 76.2881 115.925C76.4722 116.112 76.6806 116.218 76.9131 116.244C77.1355 116.272 77.3837 116.242 77.6576 116.153C77.8909 116.077 78.1279 115.961 78.3686 115.804C78.6125 115.658 78.7793 115.463 78.8688 115.221C78.6259 115.233 78.4037 115.17 78.2023 115.034C77.9941 114.911 77.8471 114.718 77.7614 114.454C77.6691 114.17 77.6929 113.915 77.8329 113.69C77.9628 113.469 78.1697 113.312 78.4537 113.219C78.7682 113.117 79.0329 113.138 79.2477 113.281C79.4658 113.434 79.6177 113.643 79.7034 113.907C79.7924 114.181 79.799 114.425 79.7232 114.641C79.6372 114.859 79.5074 115.081 79.3337 115.306C79.143 115.547 78.8781 115.785 78.539 116.018C78.1898 116.255 77.7819 116.449 77.3152 116.601C76.879 116.743 76.4872 116.814 76.1397 116.815C75.7854 116.829 75.4672 116.764 75.1849 116.62C74.8555 116.469 74.5925 116.23 74.3959 115.901C74.2027 115.582 74.0253 115.175 73.8637 114.678L72.4987 110.478C72.4163 110.224 72.3265 110.052 72.2294 109.96C72.1254 109.881 71.9973 109.867 71.8452 109.916C71.7437 109.949 71.6556 110.006 71.5808 110.086C71.4958 110.17 71.4039 110.284 71.305 110.428L71.0687 110.219C71.2257 109.978 71.3993 109.77 71.5895 109.596C71.7696 109.425 72.027 109.285 72.3617 109.176C72.6864 109.071 72.9666 109.036 73.2025 109.071C73.4383 109.107 73.6383 109.205 73.8024 109.364C73.9563 109.527 74.0794 109.751 74.1718 110.035C74.297 109.523 74.506 109.096 74.7987 108.755C75.0913 108.413 75.4811 108.163 75.968 108.004ZM75.475 108.972C75.191 109.064 74.9536 109.231 74.7629 109.473C74.5621 109.718 74.4079 110.037 74.3003 110.431L75.2845 113.459C75.3434 113.26 75.4595 113.065 75.633 112.874C75.8097 112.694 76.0001 112.503 76.204 112.302C76.4079 112.101 76.595 111.883 76.7654 111.648C76.929 111.427 77.0423 111.171 77.1051 110.882C77.168 110.592 77.1385 110.26 77.0165 109.884C76.8879 109.489 76.6843 109.207 76.4055 109.04C76.1301 108.883 75.82 108.86 75.475 108.972Z" fill="#2B2B2B" fill-opacity="0.5"/>
<path d="M86.9701 112.34C86.147 112.791 85.3657 112.897 84.6263 112.657C83.8868 112.418 83.2223 111.761 82.6326 110.685L87.4729 108.031L87.6471 108.283L84.2659 110.136C84.5078 110.6 84.776 111 85.0704 111.337C85.3699 111.684 85.6727 111.926 85.9786 112.062C86.2845 112.199 86.5824 112.187 86.8723 112.028C87.2745 111.808 87.5073 111.4 87.5708 110.806C87.63 110.226 87.4359 109.451 86.9886 108.479L86.9081 108.432C86.8456 108.296 86.7755 108.146 86.6977 107.982C86.625 107.827 86.5476 107.675 86.4656 107.525C86.1118 106.88 85.7162 106.391 85.2787 106.059C84.8413 105.727 84.4021 105.536 83.961 105.486C83.525 105.446 83.1434 105.515 82.816 105.694C82.5635 105.833 82.3408 106.004 82.148 106.207C81.951 106.424 81.7962 106.685 81.6836 106.99C81.5761 107.305 81.5305 107.676 81.5468 108.105L81.2047 108.147C81.1425 107.767 81.1438 107.359 81.2084 106.922C81.273 106.486 81.4339 106.069 81.691 105.673C81.9532 105.285 82.3275 104.959 82.8139 104.692C83.4686 104.333 84.1186 104.165 84.764 104.189C85.4144 104.221 86.0219 104.442 86.5863 104.85C87.1507 105.258 87.6406 105.841 88.056 106.599C88.5123 107.431 88.7664 108.216 88.8182 108.954C88.87 109.692 88.7374 110.349 88.4202 110.924C88.0988 111.514 87.6154 111.986 86.9701 112.34Z" fill="#2B2B2B" fill-opacity="0.5"/>
<path d="M96.4282 111.186L89.7273 102.392C89.4557 102.036 89.2036 101.846 88.9709 101.822C88.7297 101.804 88.4436 101.922 88.1128 102.174L87.9091 101.907C88.0598 101.805 88.2911 101.642 88.603 101.418C88.9214 101.202 89.2333 100.978 89.5387 100.745C89.8441 100.513 90.1473 100.268 90.4483 100.012C90.7473 99.7709 90.9699 99.5878 91.1161 99.463L91.3198 99.7302C90.9889 99.9824 90.8041 100.224 90.7653 100.454C90.718 100.692 90.8302 100.988 91.1017 101.345L96.639 108.611C96.9299 108.993 97.2069 109.225 97.4699 109.306C97.7394 109.396 98.0523 109.305 98.4086 109.033L98.6123 109.3C98.3214 109.482 98.0487 109.67 97.7942 109.863C97.5142 110.077 97.2566 110.293 97.0215 110.513C96.7928 110.74 96.5951 110.965 96.4282 111.186Z" fill="#2B2B2B" fill-opacity="0.5"/>
<path d="M106.59 99.5865C106.415 99.7584 106.192 99.9809 105.922 100.254C105.644 100.535 105.374 100.816 105.112 101.096C104.762 101.47 104.435 101.828 104.129 102.17C103.816 102.52 103.594 102.765 103.463 102.905C102.537 103.895 101.631 104.434 100.743 104.524C99.8559 104.614 99.0733 104.342 98.3956 103.708C98.1152 103.446 97.8666 103.118 97.6498 102.725C97.4334 102.348 97.3058 101.914 97.2669 101.425C97.2358 100.943 97.3315 100.419 97.5542 99.8533C97.7768 99.2875 98.187 98.6852 98.7845 98.0465L99.8558 96.9014L100.089 97.1201L99.1275 98.1482C98.6393 98.6701 98.3727 99.1658 98.328 99.6351C98.276 100.112 98.3776 100.558 98.6329 100.972C98.8808 101.394 99.2035 101.791 99.6007 102.162C100.341 102.855 101.018 103.24 101.631 103.317C102.245 103.395 102.858 103.107 103.47 102.452C103.784 102.118 103.925 101.834 103.895 101.601C103.857 101.375 103.636 101.073 103.231 100.695L97.459 95.2945C97.1708 95.0249 96.9236 94.852 96.7173 94.7759C96.5188 94.707 96.316 94.7364 96.109 94.864C95.9019 94.9917 95.6378 95.2193 95.3167 95.547L95.0713 95.3174C95.2836 95.1217 95.5465 94.8564 95.8598 94.5214C96.181 94.1938 96.5092 93.8508 96.8444 93.4925C97.1359 93.1809 97.4126 92.8774 97.6744 92.5819C97.9367 92.3015 98.1512 92.0566 98.3178 91.8473L98.5515 92.066C98.3193 92.3454 98.1646 92.5731 98.0875 92.7493C98.0103 92.9254 98.0236 93.0986 98.1274 93.2687C98.2239 93.4466 98.4123 93.6667 98.6928 93.929L104.488 99.3509C104.776 99.6205 105.008 99.7939 105.184 99.871C105.361 99.9633 105.538 99.9611 105.716 99.8647C105.895 99.7833 106.108 99.6177 106.356 99.3679L106.59 99.5865Z" fill="#2B2B2B" fill-opacity="0.5"/>
<path d="M104.95 85.0731C104.799 85.3556 104.58 85.541 104.292 85.6292C104.007 85.7318 103.724 85.708 103.442 85.5577C103.168 85.4125 102.99 85.1909 102.907 84.8929C102.828 84.6094 102.864 84.3264 103.014 84.0439C103.165 83.7613 103.382 83.5688 103.666 83.4662C103.954 83.378 104.235 83.4065 104.508 83.5518C104.791 83.702 104.972 83.9189 105.05 84.2024C105.133 84.5004 105.1 84.7906 104.95 85.0731Z" fill="#2B2B2B" fill-opacity="0.5"/>
<path d="M114.804 75.9585L114.484 75.8588C114.56 75.6143 114.607 75.389 114.627 75.1828C114.653 74.9899 114.599 74.8392 114.465 74.7306C114.328 74.6322 114.046 74.5891 113.618 74.6013L108.585 74.7302L108.566 74.5737L114.043 78.5703L113.811 78.8331L106.778 73.7502C106.804 73.6687 106.829 73.5872 106.854 73.5057C106.88 73.4242 106.906 73.3377 106.935 73.246L114.473 72.8732C114.931 72.8368 115.226 72.7497 115.358 72.612C115.487 72.4846 115.569 72.3648 115.604 72.2527L115.925 72.3524C115.818 72.5874 115.715 72.8291 115.616 73.0774C115.523 73.3391 115.428 73.6278 115.33 73.9436C115.232 74.2594 115.139 74.5936 115.052 74.9463C114.962 75.3091 114.879 75.6465 114.804 75.9585ZM112.242 84.2096L111.936 84.1147C111.966 83.9116 111.926 83.6982 111.817 83.4744C111.707 83.2506 111.464 83.0076 111.088 82.7455L105.279 78.5787C105.304 78.4972 105.331 78.4106 105.359 78.3189C105.384 78.2374 105.41 78.1559 105.435 78.0744L112.298 77.6092L114.043 78.5703C114.002 78.669 113.967 78.7642 113.938 78.8558C113.917 78.9609 113.89 79.0643 113.858 79.1662L106.882 79.5122L106.909 79.37L110.648 82.0056C111.024 82.2677 111.339 82.4215 111.593 82.4669C111.847 82.5122 112.064 82.4622 112.243 82.3168C112.422 82.1715 112.584 81.9201 112.729 81.5629L113.034 81.6578C112.967 81.838 112.906 81.9979 112.852 82.1373C112.804 82.2901 112.753 82.4362 112.699 82.5757C112.651 82.7285 112.604 82.8813 112.556 83.0341C112.487 83.2582 112.427 83.4686 112.377 83.6653C112.324 83.8722 112.279 84.0536 112.242 84.2096Z" fill="#2B2B2B" fill-opacity="0.5"/>
<path d="M116.892 65.0161C116.84 65.7289 116.645 66.351 116.307 66.8825C115.969 67.4139 115.468 67.8212 114.806 68.1044C114.143 68.3876 113.296 68.4915 112.264 68.4161C111.232 68.3407 110.409 68.1149 109.795 67.7385C109.192 67.3628 108.761 66.8876 108.504 66.3126C108.257 65.7384 108.159 65.095 108.211 64.3822C108.263 63.6801 108.453 63.0576 108.781 62.5147C109.12 61.9726 109.615 61.5596 110.267 61.2757C110.929 61.0031 111.776 60.9045 112.807 60.9799C113.839 61.0553 114.663 61.2758 115.278 61.6416C115.892 62.018 116.327 62.499 116.584 63.0846C116.841 63.6702 116.944 64.314 116.892 65.0161ZM116.573 64.9928C116.614 64.4396 116.327 63.9642 115.715 63.5665C115.113 63.1696 114.099 62.9191 112.673 62.815C111.248 62.7109 110.208 62.8115 109.555 63.1167C108.913 63.4227 108.571 63.8523 108.531 64.4055C108.491 64.9481 108.767 65.4174 109.358 65.8135C109.959 66.2211 110.973 66.4769 112.398 66.581C113.824 66.6851 114.864 66.5792 115.518 66.2633C116.182 65.9589 116.534 65.5354 116.573 64.9928Z" fill="#2B2B2B" fill-opacity="0.5"/>
<path d="M116.49 53.9694C116.548 54.3921 116.538 54.7436 116.458 55.0237C116.39 55.313 116.273 55.5606 116.108 55.7664C115.933 55.9843 115.693 56.152 115.386 56.2696C115.08 56.3978 114.658 56.499 114.119 56.5733L109.871 57.1583C109.428 57.2194 109.138 57.3454 109.003 57.5363C108.869 57.7378 108.831 58.0446 108.887 58.4567L108.555 58.5025C108.54 58.3214 108.512 58.0399 108.471 57.6581C108.439 57.2747 108.398 56.8982 108.347 56.5283C108.298 56.169 108.238 55.8112 108.167 55.4549C108.109 55.1076 108.062 54.8449 108.026 54.6667L108.359 54.6209C108.409 54.9801 108.523 55.2228 108.702 55.3489C108.881 55.475 109.192 55.5075 109.636 55.4464L114.327 54.8003C114.634 54.7581 114.905 54.6938 115.141 54.6075C115.387 54.5198 115.573 54.3812 115.697 54.1917C115.832 54.0008 115.877 53.7363 115.83 53.3982C115.776 53.0072 115.617 52.6738 115.353 52.3979C115.091 52.1326 114.751 51.937 114.336 51.8112C113.932 51.6945 113.492 51.6689 113.017 51.7344L109.197 52.2605C108.753 52.3216 108.462 52.4371 108.324 52.6068C108.187 52.7872 108.143 53.0517 108.191 53.4004L107.858 53.4462C107.845 53.2757 107.82 53.0154 107.783 52.6652C107.757 52.3241 107.719 51.9687 107.668 51.5988C107.619 51.2396 107.557 50.8659 107.482 50.4778C107.417 50.0883 107.367 49.7992 107.33 49.6104L107.663 49.5646C107.72 49.9767 107.839 50.2564 108.021 50.4036C108.204 50.5614 108.517 50.6098 108.961 50.5486L113.938 49.8632C114.414 49.7977 114.752 49.6705 114.952 49.4814C115.162 49.2909 115.237 48.9737 115.176 48.5299L115.509 48.4841C115.524 48.8266 115.553 49.1563 115.597 49.4733C115.646 49.8326 115.708 50.1633 115.782 50.4654C115.868 50.7766 115.966 51.0591 116.076 51.3131L114.348 51.5511C115.041 51.7356 115.553 52.0474 115.882 52.4865C116.213 52.9362 116.416 53.4305 116.49 53.9694Z" fill="#2B2B2B" fill-opacity="0.5"/>
<path d="M100.261 39.7677C100.002 39.2295 99.8142 38.7044 99.6977 38.1922C99.5858 37.6896 99.5732 37.2458 99.66 36.8606C99.7418 36.4897 99.9508 36.2232 100.287 36.0611C100.604 35.9084 100.948 35.9086 101.318 36.0619C101.687 36.2153 102.053 36.5069 102.414 36.9368L102.232 37.1488C102.048 36.9887 101.833 36.8972 101.585 36.8745C101.342 36.8614 101.105 36.9104 100.874 37.0215C100.451 37.2252 100.22 37.5797 100.179 38.0848C100.138 38.5899 100.273 39.1643 100.583 39.8082C100.791 40.2406 101.046 40.6212 101.346 40.95C101.642 41.2931 101.972 41.5246 102.338 41.6444C102.708 41.7739 103.09 41.7437 103.484 41.5539C103.792 41.4057 103.998 41.1702 104.103 40.8473C104.198 40.5291 104.088 40.0432 103.773 39.3898L103.287 38.3808C103.125 38.0445 103.004 37.7183 102.922 37.4022C102.841 37.0862 102.838 36.7975 102.914 36.5362C103.003 36.2799 103.202 36.0776 103.509 35.9295C103.855 35.7628 104.251 35.7495 104.698 35.8897C105.144 36.0298 105.681 36.3692 106.307 36.908L106.261 37.1435C105.973 36.9389 105.694 36.7654 105.424 36.6231C105.169 36.4858 104.925 36.4727 104.695 36.5838C104.387 36.7319 104.34 37.027 104.553 37.4691L105.379 39.1844C105.597 39.636 105.731 40.0745 105.782 40.4998C105.843 40.9206 105.797 41.3039 105.644 41.65C105.491 41.996 105.203 42.2709 104.78 42.4746C104.329 42.6922 103.834 42.7469 103.296 42.6389C102.754 42.545 102.221 42.2629 101.699 41.7925C101.166 41.3267 100.687 40.6517 100.261 39.7677ZM106.083 37.0693C105.847 36.5792 105.709 36.0953 105.668 35.6177C105.637 35.1353 105.734 34.6979 105.959 34.3052C106.184 33.9125 106.561 33.5888 107.09 33.3342C107.618 33.0796 108.106 32.9865 108.554 33.0551C109.011 33.1191 109.413 33.3158 109.762 33.6453C110.119 33.9702 110.416 34.3777 110.652 34.8678C110.898 35.3771 111.034 35.8681 111.06 36.3408C111.096 36.8088 110.997 37.2415 110.762 37.6388C110.537 38.0315 110.16 38.3552 109.632 38.6098C109.103 38.8645 108.615 38.9575 108.168 38.8889C107.72 38.8203 107.32 38.6284 106.967 38.3131C106.623 37.9932 106.329 37.5786 106.083 37.0693ZM106.343 36.9443C106.505 37.2806 106.774 37.4706 107.15 37.5143C107.526 37.558 108.099 37.3946 108.868 37.0242C109.636 36.6539 110.121 36.3079 110.321 35.9864C110.531 35.6603 110.555 35.3291 110.393 34.9928C110.24 34.6757 109.969 34.4928 109.578 34.4441C109.197 34.3908 108.622 34.5494 107.854 34.9198C107.085 35.2902 106.603 35.6409 106.407 35.972C106.211 36.3031 106.19 36.6272 106.343 36.9443ZM110.47 37.5845L110.445 37.2764C110.847 37.2489 111.251 37.3383 111.658 37.5446C112.065 37.751 112.355 38.0319 112.526 38.3875C112.656 38.6565 112.681 38.905 112.601 39.1328C112.535 39.3656 112.368 39.5468 112.099 39.6765C111.801 39.82 111.55 39.8402 111.347 39.737C111.148 39.6435 111.007 39.5102 110.923 39.3372C110.849 39.1835 110.833 39.0139 110.873 38.8284C110.919 38.6525 111.048 38.5018 111.259 38.3761C111.481 38.2457 111.809 38.1766 112.243 38.1686L112.262 38.355C111.923 38.0447 111.623 37.8399 111.362 37.7407C111.115 37.6464 110.818 37.5943 110.47 37.5845Z" fill="#2B2B2B" fill-opacity="0.5"/>
<path d="M105.308 26.4254C105.568 26.7639 105.733 27.0746 105.802 27.3576C105.886 27.6425 105.907 27.9154 105.865 28.1761C105.821 28.4518 105.695 28.7167 105.487 28.9708C105.285 29.2333 104.968 29.5302 104.537 29.8614L101.135 32.4721C100.78 32.7449 100.591 32.9977 100.568 33.2305C100.551 33.4717 100.669 33.7574 100.923 34.0874L100.656 34.292C100.554 34.1416 100.391 33.9109 100.165 33.5998C99.9483 33.2822 99.7262 32.9753 99.4989 32.6791C99.2781 32.3914 99.0489 32.1102 98.8111 31.8355C98.5883 31.5627 98.4175 31.3577 98.2987 31.2203L98.5652 31.0158C98.786 31.3035 99.0053 31.4578 99.2232 31.4789C99.441 31.4999 99.7277 31.3741 100.083 31.1013L103.84 28.2178C104.085 28.0295 104.289 27.8395 104.451 27.6478C104.622 27.4496 104.715 27.2374 104.729 27.0111C104.752 26.7783 104.66 26.5265 104.452 26.2557C104.212 25.9426 103.908 25.7316 103.542 25.6226C103.183 25.522 102.791 25.52 102.368 25.6164C101.959 25.7148 101.565 25.9102 101.184 26.2024L98.125 28.5501C97.7696 28.8229 97.5739 29.0672 97.5379 29.2831C97.5084 29.5074 97.6008 29.7592 97.8151 30.0384L97.5486 30.243C97.4531 30.1011 97.3025 29.8873 97.0966 29.6016C96.9057 29.3178 96.6966 29.0279 96.4693 28.7317C96.2485 28.444 96.0095 28.1501 95.7523 27.85C95.5035 27.5434 95.3165 27.3172 95.1911 27.1714L95.4577 26.9668C95.7109 27.2968 95.953 27.4808 96.1838 27.5188C96.4212 27.5652 96.7175 27.4521 97.0729 27.1793L101.058 24.1205C101.439 23.8282 101.67 23.5504 101.75 23.2871C101.839 23.0173 101.747 22.7047 101.474 22.3493L101.741 22.1448C101.923 22.435 102.112 22.7071 102.306 22.9609C102.527 23.2486 102.744 23.5054 102.958 23.7313C103.187 23.9592 103.412 24.1562 103.634 24.3223L102.25 25.3841C102.944 25.2015 103.542 25.2194 104.046 25.4378C104.556 25.6647 104.977 25.9939 105.308 26.4254Z" fill="#2B2B2B" fill-opacity="0.5"/>
<path d="M100.554 15.2878C100.796 15.5126 100.927 15.7794 100.946 16.0881C100.973 16.389 100.881 16.6529 100.671 16.8797C100.46 17.1066 100.201 17.2221 99.8913 17.2262C99.5893 17.2225 99.317 17.1083 99.0745 16.8835C98.832 16.6587 98.6975 16.3958 98.6711 16.0949C98.6518 15.7862 98.7474 15.5184 98.9577 15.2915C99.168 15.0647 99.4242 14.9531 99.7262 14.9568C100.036 14.9526 100.311 15.063 100.554 15.2878ZM98.6363 18.7682L93.9152 23.8604C93.6107 24.1889 93.4666 24.4698 93.4829 24.7032C93.5071 24.9438 93.6718 25.2055 93.9768 25.4884L93.7484 25.7348C93.6227 25.6037 93.4226 25.4037 93.1483 25.1348C92.889 24.8653 92.6147 24.5964 92.3252 24.3281C92.0515 24.0743 91.7626 23.821 91.4587 23.5683C91.162 23.3078 90.9397 23.1162 90.7916 22.9935L91.02 22.7471C91.3251 23.0299 91.5946 23.1707 91.8285 23.1694C92.0703 23.1754 92.3435 23.0141 92.6481 22.6855L96.0638 19.0013C96.3901 18.6493 96.5708 18.3368 96.6057 18.0637C96.6479 17.7829 96.5048 17.4902 96.1762 17.1856L96.4047 16.9392C96.6332 17.1947 96.8648 17.4312 97.0995 17.6488C97.3655 17.8954 97.6227 18.1121 97.8713 18.2989C98.135 18.4852 98.39 18.6416 98.6363 18.7682Z" fill="#2B2B2B" fill-opacity="0.5"/>
<path d="M95.0831 10.718L89.1518 19.7435C88.8882 20.1447 88.7588 20.4872 88.7637 20.7712C88.7833 21.0521 88.9758 21.3127 89.3413 21.5529L89.1568 21.8337C88.898 21.6253 88.6305 21.4303 88.3541 21.2487C88.051 21.0496 87.757 20.8755 87.472 20.7265C87.1959 20.5833 86.923 20.4742 86.6533 20.3991L92.5846 11.3735C92.8482 10.9724 92.9702 10.6314 92.9506 10.3505C92.9457 10.0665 92.7606 9.80439 92.3951 9.56421L92.5796 9.28342C92.8473 9.49762 93.1148 9.69258 93.3823 9.86833C93.6764 10.0616 93.966 10.2328 94.251 10.3818C94.5419 10.5219 94.8192 10.6339 95.0831 10.718ZM89.8427 12.1372C90.2349 12.3949 90.5358 12.7139 90.7454 13.0942C90.9639 13.4803 91.0082 13.9179 90.8783 14.4069L90.6212 14.4485C90.7073 14.0456 90.6769 13.6937 90.5299 13.393C90.3888 13.0832 90.1668 12.8288 89.8637 12.6296C89.3556 12.2957 88.7624 12.2952 88.0841 12.6281C87.4118 12.952 86.711 13.6785 85.9818 14.8076C85.4955 15.5474 85.1596 16.1946 84.9739 16.7491C84.7941 17.2946 84.7513 17.7579 84.8455 18.1389C84.9487 18.5258 85.1741 18.8335 85.5217 19.0619C85.8694 19.2904 86.278 19.3483 86.7477 19.2358C87.2262 19.1291 87.6739 18.8169 88.0906 18.2994L88.0264 18.6593C87.5389 19.2069 87.0174 19.5343 86.4619 19.6415C85.9123 19.7398 85.3522 19.6015 84.7817 19.2266C84.238 18.8692 83.8415 18.4236 83.5925 17.8898C83.3581 17.3529 83.3053 16.7438 83.4339 16.0625C83.5684 15.3723 83.9051 14.6172 84.4441 13.7971C84.9772 12.9859 85.5532 12.4007 86.1721 12.0416C86.8057 11.6795 87.4378 11.5141 88.0681 11.5454C88.6985 11.5767 89.29 11.774 89.8427 12.1372Z" fill="#2B2B2B" fill-opacity="0.5"/>
<path d="M75.3515 14.4887C74.9354 14.3226 74.6104 14.101 74.3764 13.8239C74.1424 13.5468 74.0065 13.2399 73.9686 12.9032C73.9307 12.5665 73.9829 12.2198 74.1252 11.8632C74.2991 11.4273 74.5386 11.1151 74.8434 10.9267C75.1523 10.7284 75.4938 10.6063 75.8682 10.5604C76.2524 10.5185 76.6396 10.5122 77.0299 10.5416C77.434 10.565 77.8093 10.5885 78.156 10.612C78.5165 10.6295 78.8235 10.6084 79.077 10.5488C79.3404 10.4931 79.5175 10.3514 79.6085 10.1235L80.0117 9.11299C80.154 8.75633 80.2072 8.45026 80.1714 8.19478C80.1494 7.93333 80.0571 7.7185 79.8945 7.55027C79.7419 7.386 79.5318 7.25049 79.2643 7.14375C79.0364 7.05282 78.7799 6.99064 78.4946 6.95721C78.2133 6.91386 77.9608 6.95666 77.7371 7.0856C77.9313 7.23201 78.0622 7.42205 78.1298 7.65573C78.2112 7.88344 78.2005 8.12609 78.0977 8.38368C77.987 8.66107 77.8059 8.84147 77.5544 8.92487C77.3128 9.01223 77.0533 9.00056 76.7759 8.88987C76.4688 8.76731 76.2785 8.58227 76.205 8.33474C76.1355 8.0773 76.1521 7.81979 76.2549 7.56221C76.3616 7.29472 76.513 7.10246 76.709 6.98543C76.9149 6.87236 77.1565 6.785 77.4337 6.72337C77.7348 6.65974 78.0903 6.64656 78.5003 6.68386C78.9203 6.72511 79.3581 6.83666 79.8139 7.01851C80.2399 7.1885 80.5867 7.3843 80.8542 7.60592C81.1357 7.82159 81.3389 8.07496 81.464 8.36603C81.6207 8.69272 81.6695 9.04526 81.6104 9.42363C81.5553 9.79209 81.4308 10.219 81.2371 10.7045L79.6005 14.806C79.5016 15.0537 79.4602 15.2439 79.4761 15.3766C79.506 15.5033 79.5952 15.5963 79.7438 15.6556C79.8428 15.6952 79.9469 15.708 80.0558 15.694C80.1746 15.684 80.3182 15.6552 80.4865 15.6075L80.5343 15.9194C80.2591 16.0048 79.9927 16.0536 79.7352 16.0657C79.4876 16.0817 79.2004 16.0245 78.8734 15.894C78.5564 15.7675 78.3186 15.6152 78.16 15.4371C78.0014 15.2589 77.9101 15.056 77.8861 14.8282C77.8721 14.6044 77.9204 14.3538 78.0311 14.0764C77.6075 14.3897 77.1739 14.5842 76.7302 14.6598C76.2866 14.7355 75.827 14.6784 75.3515 14.4887ZM76.3494 14.06C76.6268 14.1707 76.916 14.1942 77.2171 14.1306C77.528 14.0709 77.8507 13.924 78.1853 13.69L79.3653 10.7328C79.1931 10.8478 78.9792 10.9233 78.7238 10.9591C78.4722 10.9851 78.2039 11.0101 77.9186 11.0341C77.6334 11.0581 77.3502 11.1059 77.069 11.1774C76.8017 11.243 76.5512 11.367 76.3176 11.5494C76.0841 11.7318 75.8941 12.0063 75.7479 12.3729C75.5937 12.7593 75.5702 13.1059 75.6774 13.4128C75.7886 13.7099 76.0126 13.9256 76.3494 14.06Z" fill="#2B2B2B" fill-opacity="0.5"/>
<path d="M68.852 4.01098C69.5547 4.14161 70.1513 4.40444 70.6421 4.79947C71.1328 5.19449 71.4822 5.73683 71.6903 6.42649C71.8984 7.11615 71.9079 7.9696 71.7188 8.98684C71.5297 10.0041 71.214 10.7971 70.772 11.3658C70.3318 11.9241 69.8118 12.2994 69.2119 12.4916C68.6139 12.6734 67.9636 12.699 67.261 12.5683C66.5689 12.4396 65.9712 12.1821 65.4681 11.7956C64.9668 11.3986 64.6112 10.8605 64.4011 10.1814C64.2035 9.49364 64.1993 8.64117 64.3884 7.62394C64.5775 6.6067 64.8879 5.81272 65.3195 5.242C65.7616 4.67322 66.2878 4.29369 66.8982 4.10339C67.5086 3.9131 68.1599 3.88229 68.852 4.01098ZM68.7935 4.32559C68.2482 4.2242 67.744 4.45594 67.281 5.02082C66.8199 5.5752 66.4587 6.55502 66.1974 7.96027C65.9361 9.36552 65.921 10.4097 66.152 11.0928C66.385 11.7653 66.7742 12.1523 67.3195 12.2537C67.8543 12.3532 68.3513 12.1309 68.8105 11.587C69.2821 11.0346 69.6485 10.0557 69.9098 8.6505C70.1711 7.24525 70.1809 6.20011 69.9394 5.51509C69.7103 4.82153 69.3284 4.42503 68.7935 4.32559Z" fill="#2B2B2B" fill-opacity="0.5"/>
<path d="M56.9153 0.347421L56.9228 0.667334C56.5605 0.686445 56.2842 0.735559 56.094 0.814678C55.9142 0.882884 55.7946 1.01371 55.7351 1.20715C55.6753 1.38992 55.65 1.67859 55.6592 2.07315L55.8455 10.071C55.854 10.4335 55.887 10.7048 55.9445 10.8849C56.0127 11.0647 56.1329 11.1846 56.305 11.2446C56.4875 11.2937 56.7441 11.3144 57.0747 11.3067L58.1144 11.2825C58.5729 11.2718 58.9553 11.1988 59.2616 11.0637C59.5785 10.9283 59.8406 10.7301 60.048 10.4692C60.2553 10.2083 60.4129 9.87387 60.5207 9.46592C60.6286 9.05796 60.7082 8.58131 60.7595 8.03597L61.1274 8.0274C61.1033 8.36938 61.0978 8.81763 61.1107 9.37215C61.1157 9.58543 61.1283 9.89988 61.1487 10.3155C61.1794 10.7202 61.2212 11.1407 61.2741 11.5769C60.7297 11.5683 60.1163 11.5719 59.4338 11.5878C58.7511 11.593 58.1432 11.6019 57.61 11.6143C57.3647 11.62 57.0501 11.6273 56.6662 11.6363C56.2823 11.6452 55.8666 11.6603 55.4189 11.6813C54.9817 11.6915 54.534 11.7073 54.0757 11.7286C53.6278 11.7391 53.196 11.7545 52.7804 11.7748L52.7729 11.4549C53.135 11.4251 53.4059 11.3762 53.5857 11.3079C53.7655 11.2397 53.8798 11.109 53.9287 10.9159C53.9882 10.7224 54.0135 10.4337 54.0045 10.0499L53.8197 2.116C53.8105 1.72144 53.7718 1.43427 53.7036 1.25447C53.6458 1.06377 53.5202 0.938661 53.3268 0.879151C53.1437 0.808728 52.8761 0.772284 52.524 0.769819L52.5165 0.449906C52.7621 0.454855 53.0769 0.458189 53.461 0.459909C53.8558 0.46138 54.2772 0.456898 54.7251 0.446463C55.1303 0.437022 55.53 0.422373 55.9244 0.402517C56.3293 0.382413 56.6597 0.364047 56.9153 0.347421Z" fill="#2B2B2B" fill-opacity="0.5"/>
</svg>
